<svg xmlns="http://www.w3.org/2000/svg" viewBox="0 0 100 100">
  <defs>
    <linearGradient id="grad" x1="0%" y1="0%" x2="100%" y2="100%">
      <stop offset="0%" style="stop-color:#4F46E5;stop-opacity:1" />
      <stop offset="100%" style="stop-color:#7C3AED;stop-opacity:1" />
    </linearGradient>
  </defs>
  <!-- Shopping bag shape -->
  <path d="M25 35 L25 85 Q25 90 30 90 L70 90 Q75 90 75 85 L75 35 Z" fill="url(#grad)"/>
  <!-- Bag handle -->
  <path d="M35 35 Q35 20 50 20 Q65 20 65 35" stroke="url(#grad)" stroke-width="3" fill="none"/>
  <!-- Letter S -->
  <path d="M42 50 Q38 50 38 54 Q38 58 42 58 L58 58 Q62 58 62 62 Q62 66 58 66 L42 66" stroke="white" stroke-width="4" fill="none" stroke-linecap="round"/>
  <!-- Letter U -->
  <path d="M42 72 L42 80 Q42 84 46 84 L54 84 Q58 84 58 80 L58 72" stroke="white" stroke-width="4" fill="none" stroke-linecap="round"/>
</svg>
