<?xml version="1.0" standalone="no"?>
<!DOCTYPE svg PUBLIC "-//W3C//DTD SVG 20010904//EN"
 "http://www.w3.org/TR/2001/REC-SVG-20010904/DTD/svg10.dtd">
<svg version="1.0" xmlns="http://www.w3.org/2000/svg"
 width="512.000000pt" height="512.000000pt" viewBox="0 0 512.000000 512.000000"
 preserveAspectRatio="xMidYMid meet">
<metadata>
ShopUp Safari Pinned Tab Icon
</metadata>
<g transform="translate(0.000000,512.000000) scale(0.100000,-0.100000)"
fill="#000000" stroke="none">
<path d="M0 2560 l0 -2560 2560 0 2560 0 0 2560 0 2560 -2560 0 -2560 0 0
-2560z m3840 1280 l0 -640 -1280 0 -1280 0 0 640 0 640 1280 0 1280 0 0 -640z
m-2560 -1280 l0 -1280 -640 0 -640 0 0 1280 0 1280 640 0 640 0 0 -1280z
m2560 0 l0 -1280 -640 0 -640 0 0 1280 0 1280 640 0 640 0 0 -1280z m-1280 0
l0 -1280 -640 0 -640 0 0 1280 0 1280 640 0 640 0 0 -1280z"/>
</g>
</svg>
